# Blender 4.3.1
# www.blender.org
o Cube
v 1.000000 -0.025065 -1.000000
v 1.000000 -0.025065 1.000000
v -1.000000 1.974935 -1.000000
v -1.000000 -0.025065 -1.000000
v -1.000000 -0.025065 1.000000
v -1.000000 -0.025065 0.000000
v 0.000000 -0.025065 -1.000000
v 1.000000 0.974935 -1.000000
v -1.000000 0.974935 1.000000
v 1.000000 0.974935 1.000000
v -1.000000 0.974935 -1.000000
v 0.000000 -0.025065 1.000000
v -1.000000 1.974935 -0.000000
v 0.000000 1.974935 -1.000000
v 1.000000 -0.025065 0.000000
v 0.000000 0.974935 -1.000000
v 1.000000 0.974935 -0.000000
v 0.000000 -0.025065 0.000000
v -1.000000 0.974935 -0.000000
v 0.000000 0.974935 1.000000
v 0.000000 1.974935 -0.000000
v 1.000000 0.974935 -0.000000
v 1.000000 0.974935 1.000000
v 0.000000 0.974935 1.000000
v 0.000000 0.974935 -0.000000
v 0.000000 0.974935 1.000000
v -1.000000 0.974935 1.000000
v -1.000000 0.974935 -0.000000
v 0.000000 0.974935 -0.000000
v 0.000000 0.974935 -1.000000
v 1.000000 0.974935 -1.000000
v 1.000000 0.974935 -0.000000
v 0.000000 0.974935 -0.000000
vn -1.0000 -0.0000 -0.0000
vn -0.0000 -1.0000 -0.0000
vn -0.0000 -0.0000 -1.0000
vn 1.0000 -0.0000 -0.0000
vn -0.0000 -0.0000 1.0000
vn -0.0000 1.0000 -0.0000
s 0
f 19//1 13//1 3//1 11//1
f 18//2 15//2 2//2 12//2
f 7//3 16//3 8//3 1//3
f 4//3 11//3 16//3 7//3
f 11//3 3//3 14//3 16//3
f 15//4 17//4 10//4 2//4
f 1//4 8//4 17//4 15//4
f 6//2 18//2 12//2 5//2
f 4//2 7//2 18//2 6//2
f 7//2 1//2 15//2 18//2
f 6//1 19//1 11//1 4//1
f 5//1 9//1 19//1 6//1
f 12//5 20//5 9//5 5//5
f 2//5 10//5 20//5 12//5
f 14//4 21//4 33//4 30//4
f 14//6 3//6 13//6 21//6
f 22//6 25//6 24//6 23//6
f 29//6 28//6 27//6 26//6
f 21//5 13//5 28//5 29//5
f 31//6 30//6 33//6 32//6
