# Blender 4.3.1
# www.blender.org
o Cube
v 1.000000 1.974935 -1.000000
v 1.000000 -0.025065 -1.000000
v 1.000000 -0.025065 1.000000
v -1.000000 1.974935 -1.000000
v -1.000000 -0.025065 -1.000000
v -1.000000 1.974935 1.000000
v -1.000000 -0.025065 1.000000
v -1.000000 -0.025065 0.000000
v 0.000000 -0.025065 -1.000000
v 1.000000 0.974935 -1.000000
v -1.000000 0.974935 1.000000
v 1.000000 0.974935 1.000000
v -1.000000 0.974935 -1.000000
v 0.000000 1.974935 1.000000
v 1.000000 1.974935 -0.000000
v 0.000000 -0.025065 1.000000
v -1.000000 1.974935 -0.000000
v 0.000000 1.974935 -1.000000
v 1.000000 -0.025065 0.000000
v 0.000000 0.974935 -1.000000
v 1.000000 0.974935 -0.000000
v 0.000000 -0.025065 0.000000
v -1.000000 0.974935 -0.000000
v 0.000000 0.974935 1.000000
v 0.000000 1.974935 -0.000000
v 1.000000 0.974935 -0.000000
v 1.000000 0.974935 1.000000
v 0.000000 0.974935 1.000000
v 0.000000 0.974935 -0.000000
vn -0.0000 1.0000 -0.0000
vn -0.0000 -0.0000 1.0000
vn -1.0000 -0.0000 -0.0000
vn -0.0000 -1.0000 -0.0000
vn -0.0000 -0.0000 -1.0000
vn 1.0000 -0.0000 -0.0000
s 0
f 25//1 17//1 6//1 14//1
f 24//2 14//2 6//2 11//2
f 23//3 17//3 4//3 13//3
f 22//4 19//4 3//4 16//4
f 20//5 18//5 1//5 10//5
f 9//5 20//5 10//5 2//5
f 5//5 13//5 20//5 9//5
f 13//5 4//5 18//5 20//5
f 19//6 21//6 12//6 3//6
f 2//6 10//6 21//6 19//6
f 10//6 1//6 15//6 21//6
f 8//4 22//4 16//4 7//4
f 5//4 9//4 22//4 8//4
f 9//4 2//4 19//4 22//4
f 8//3 23//3 13//3 5//3
f 7//3 11//3 23//3 8//3
f 11//3 6//3 17//3 23//3
f 16//2 24//2 11//2 7//2
f 3//2 12//2 24//2 16//2
f 15//2 25//2 29//2 26//2
f 1//1 18//1 25//1 15//1
f 18//1 4//1 17//1 25//1
f 26//1 29//1 28//1 27//1
f 25//6 14//6 28//6 29//6
