# Blender 4.3.1
# www.blender.org
o Cube
v 1.000000 1.974935 -1.000000
v 1.000000 -0.025065 -1.000000
v 1.000000 -0.025065 1.000000
v -1.000000 1.974935 -1.000000
v -1.000000 -0.025065 -1.000000
v -1.000000 -0.025065 1.000000
v -1.000000 -0.025065 0.000000
v 0.000000 -0.025065 -1.000000
v 1.000000 0.974935 -1.000000
v -1.000000 0.974935 1.000000
v 1.000000 0.974935 1.000000
v -1.000000 0.974935 -1.000000
v 1.000000 1.974935 -0.000000
v 0.000000 -0.025065 1.000000
v -1.000000 1.974935 -0.000000
v 0.000000 1.974935 -1.000000
v 1.000000 -0.025065 0.000000
v 0.000000 0.974935 -1.000000
v 1.000000 0.974935 -0.000000
v 0.000000 -0.025065 0.000000
v -1.000000 0.974935 -0.000000
v 0.000000 0.974935 1.000000
v 0.000000 1.974935 -0.000000
v 1.000000 0.974935 -0.000000
v 1.000000 0.974935 1.000000
v 0.000000 0.974935 1.000000
v 0.000000 0.974935 -0.000000
v 0.000000 0.974935 1.000000
v -1.000000 0.974935 1.000000
v -1.000000 0.974935 -0.000000
v 0.000000 0.974935 -0.000000
vn -1.0000 -0.0000 -0.0000
vn -0.0000 -1.0000 -0.0000
vn -0.0000 -0.0000 -1.0000
vn 1.0000 -0.0000 -0.0000
vn -0.0000 -0.0000 1.0000
vn -0.0000 1.0000 -0.0000
s 0
f 21//1 15//1 4//1 12//1
f 20//2 17//2 3//2 14//2
f 18//3 16//3 1//3 9//3
f 8//3 18//3 9//3 2//3
f 5//3 12//3 18//3 8//3
f 12//3 4//3 16//3 18//3
f 17//4 19//4 11//4 3//4
f 2//4 9//4 19//4 17//4
f 9//4 1//4 13//4 19//4
f 7//2 20//2 14//2 6//2
f 5//2 8//2 20//2 7//2
f 8//2 2//2 17//2 20//2
f 7//1 21//1 12//1 5//1
f 6//1 10//1 21//1 7//1
f 14//5 22//5 10//5 6//5
f 3//5 11//5 22//5 14//5
f 13//5 23//5 27//5 24//5
f 1//6 16//6 23//6 13//6
f 16//6 4//6 15//6 23//6
f 24//6 27//6 26//6 25//6
f 31//6 30//6 29//6 28//6
f 23//5 15//5 30//5 31//5
